<svg width="119" height="128" viewBox="0 0 119 128" fill="none" xmlns="http://www.w3.org/2000/svg">
<rect width="119" height="128" fill="#E5E5E5"/>
<g clip-path="url(#clip0)">
<rect width="375" height="812" transform="translate(-222 -612)" fill="#18191D"/>
<rect x="-264" y="120" width="439" height="93" fill="#1D2024"/>
<g clip-path="url(#clip1)">
<mask id="path-2-outside-1" maskUnits="userSpaceOnUse" x="13.3774" y="-1" width="92" height="130" fill="black">
<rect fill="white" x="13.3774" y="-1" width="92" height="130"/>
<path d="M99.139 70.9837L81.3706 41.0229C83.8882 39.5998 85.6103 36.7601 85.6103 33.4944C85.6103 29.9199 83.5474 26.8558 80.6357 25.6014L86.0184 5.35921C86.2506 4.48591 86.0242 3.5461 85.4274 2.90381C81.8467 -0.947418 76.0209 -0.947418 72.4402 2.90381C71.5837 3.82512 70.445 4.3324 69.2338 4.3324C68.0226 4.3324 66.8838 3.82512 66.022 2.89781L66.0106 2.88556C62.4427 -0.952669 56.6269 -0.963419 53.0446 2.86281L52.9779 2.93432C51.2098 4.82268 48.338 4.81718 46.5764 2.92207L46.5594 2.90381C42.9787 -0.947418 37.153 -0.947418 33.5723 2.90381C32.9749 3.5466 32.7488 4.48716 32.9814 5.36096L38.3758 25.5967C35.4578 26.8478 33.3894 29.9152 33.3894 33.4947C33.3894 36.7604 35.1113 39.6 37.629 41.0231L19.8604 70.9837C12.9864 82.5744 12.5508 96.6917 18.6952 108.747C24.8397 120.803 36.1388 128 48.9207 128H70.0784C82.8601 128 94.1593 120.803 100.304 108.747C106.448 96.6917 106.013 82.5744 99.139 70.9837V70.9837ZM43.2721 6.43953L43.289 6.45778C46.8574 10.2958 52.6729 10.3063 56.255 6.48053L56.3217 6.40903C58.0896 4.52066 60.9614 4.52616 62.7286 6.42703L62.74 6.43928C66.3207 10.2905 72.1464 10.2905 75.7271 6.43928C77.184 4.87218 79.3938 4.59642 81.1157 5.61198L75.9621 24.9939H43.0515L37.8844 5.61173C39.6063 4.59642 41.8154 4.87268 43.2721 6.43953V6.43953ZM96.2277 106.344C90.9119 116.773 81.1366 123 70.0787 123H48.921C37.8631 123 28.0877 116.773 22.7719 106.344C17.4561 95.9139 17.8329 83.7007 23.7798 73.6728L42.5664 41.9949H49.0402C50.3239 41.9949 51.3646 40.8756 51.3646 39.4948C51.3646 38.1139 50.3239 36.9946 49.0402 36.9946H41.2922C39.4978 36.9946 38.0381 35.4245 38.0381 33.4944C38.0381 31.5643 39.4978 29.9942 41.2922 29.9942H41.2999H77.7072C79.5016 29.9942 80.9613 31.5643 80.9613 33.4944C80.9613 35.4245 79.5016 36.9946 77.7072 36.9946H69.9594C68.6757 36.9946 67.6351 38.1139 67.6351 39.4948C67.6351 40.8756 68.6757 41.9949 69.9594 41.9949H76.433L95.2199 73.6728C101.167 83.7004 101.544 95.9137 96.2277 106.344Z"/>
</mask>
<path d="M99.139 70.9837L81.3706 41.0229C83.8882 39.5998 85.6103 36.7601 85.6103 33.4944C85.6103 29.9199 83.5474 26.8558 80.6357 25.6014L86.0184 5.35921C86.2506 4.48591 86.0242 3.5461 85.4274 2.90381C81.8467 -0.947418 76.0209 -0.947418 72.4402 2.90381C71.5837 3.82512 70.445 4.3324 69.2338 4.3324C68.0226 4.3324 66.8838 3.82512 66.022 2.89781L66.0106 2.88556C62.4427 -0.952669 56.6269 -0.963419 53.0446 2.86281L52.9779 2.93432C51.2098 4.82268 48.338 4.81718 46.5764 2.92207L46.5594 2.90381C42.9787 -0.947418 37.153 -0.947418 33.5723 2.90381C32.9749 3.5466 32.7488 4.48716 32.9814 5.36096L38.3758 25.5967C35.4578 26.8478 33.3894 29.9152 33.3894 33.4947C33.3894 36.7604 35.1113 39.6 37.629 41.0231L19.8604 70.9837C12.9864 82.5744 12.5508 96.6917 18.6952 108.747C24.8397 120.803 36.1388 128 48.9207 128H70.0784C82.8601 128 94.1593 120.803 100.304 108.747C106.448 96.6917 106.013 82.5744 99.139 70.9837V70.9837ZM43.2721 6.43953L43.289 6.45778C46.8574 10.2958 52.6729 10.3063 56.255 6.48053L56.3217 6.40903C58.0896 4.52066 60.9614 4.52616 62.7286 6.42703L62.74 6.43928C66.3207 10.2905 72.1464 10.2905 75.7271 6.43928C77.184 4.87218 79.3938 4.59642 81.1157 5.61198L75.9621 24.9939H43.0515L37.8844 5.61173C39.6063 4.59642 41.8154 4.87268 43.2721 6.43953V6.43953ZM96.2277 106.344C90.9119 116.773 81.1366 123 70.0787 123H48.921C37.8631 123 28.0877 116.773 22.7719 106.344C17.4561 95.9139 17.8329 83.7007 23.7798 73.6728L42.5664 41.9949H49.0402C50.3239 41.9949 51.3646 40.8756 51.3646 39.4948C51.3646 38.1139 50.3239 36.9946 49.0402 36.9946H41.2922C39.4978 36.9946 38.0381 35.4245 38.0381 33.4944C38.0381 31.5643 39.4978 29.9942 41.2922 29.9942H41.2999H77.7072C79.5016 29.9942 80.9613 31.5643 80.9613 33.4944C80.9613 35.4245 79.5016 36.9946 77.7072 36.9946H69.9594C68.6757 36.9946 67.6351 38.1139 67.6351 39.4948C67.6351 40.8756 68.6757 41.9949 69.9594 41.9949H76.433L95.2199 73.6728C101.167 83.7004 101.544 95.9137 96.2277 106.344Z" fill="#CDCCCE"/>
<path d="M99.139 70.9837L81.3706 41.0229C83.8882 39.5998 85.6103 36.7601 85.6103 33.4944C85.6103 29.9199 83.5474 26.8558 80.6357 25.6014L86.0184 5.35921C86.2506 4.48591 86.0242 3.5461 85.4274 2.90381C81.8467 -0.947418 76.0209 -0.947418 72.4402 2.90381C71.5837 3.82512 70.445 4.3324 69.2338 4.3324C68.0226 4.3324 66.8838 3.82512 66.022 2.89781L66.0106 2.88556C62.4427 -0.952669 56.6269 -0.963419 53.0446 2.86281L52.9779 2.93432C51.2098 4.82268 48.338 4.81718 46.5764 2.92207L46.5594 2.90381C42.9787 -0.947418 37.153 -0.947418 33.5723 2.90381C32.9749 3.5466 32.7488 4.48716 32.9814 5.36096L38.3758 25.5967C35.4578 26.8478 33.3894 29.9152 33.3894 33.4947C33.3894 36.7604 35.1113 39.6 37.629 41.0231L19.8604 70.9837C12.9864 82.5744 12.5508 96.6917 18.6952 108.747C24.8397 120.803 36.1388 128 48.9207 128H70.0784C82.8601 128 94.1593 120.803 100.304 108.747C106.448 96.6917 106.013 82.5744 99.139 70.9837V70.9837ZM43.2721 6.43953L43.289 6.45778C46.8574 10.2958 52.6729 10.3063 56.255 6.48053L56.3217 6.40903C58.0896 4.52066 60.9614 4.52616 62.7286 6.42703L62.74 6.43928C66.3207 10.2905 72.1464 10.2905 75.7271 6.43928C77.184 4.87218 79.3938 4.59642 81.1157 5.61198L75.9621 24.9939H43.0515L37.8844 5.61173C39.6063 4.59642 41.8154 4.87268 43.2721 6.43953V6.43953ZM96.2277 106.344C90.9119 116.773 81.1366 123 70.0787 123H48.921C37.8631 123 28.0877 116.773 22.7719 106.344C17.4561 95.9139 17.8329 83.7007 23.7798 73.6728L42.5664 41.9949H49.0402C50.3239 41.9949 51.3646 40.8756 51.3646 39.4948C51.3646 38.1139 50.3239 36.9946 49.0402 36.9946H41.2922C39.4978 36.9946 38.0381 35.4245 38.0381 33.4944C38.0381 31.5643 39.4978 29.9942 41.2922 29.9942H41.2999H77.7072C79.5016 29.9942 80.9613 31.5643 80.9613 33.4944C80.9613 35.4245 79.5016 36.9946 77.7072 36.9946H69.9594C68.6757 36.9946 67.6351 38.1139 67.6351 39.4948C67.6351 40.8756 68.6757 41.9949 69.9594 41.9949H76.433L95.2199 73.6728C101.167 83.7004 101.544 95.9137 96.2277 106.344Z" stroke="#CDCCCE" stroke-width="0.8" mask="url(#path-2-outside-1)"/>
<mask id="path-3-outside-2" maskUnits="userSpaceOnUse" x="47.4823" y="58.4961" width="24" height="51" fill="black">
<rect fill="white" x="47.4823" y="58.4961" width="24" height="51"/>
<path d="M63.5978 81.6497C63.0147 81.4279 62.4194 81.1972 61.8244 80.9574V69.6262C63.4003 70.125 64.4527 70.9338 64.4974 70.9688C65.5199 71.7926 66.9705 71.5741 67.7431 70.4773C68.5183 69.3767 68.3172 67.8086 67.294 66.9745C67.1576 66.8633 64.9964 65.1377 61.8244 64.4844V61.9962C61.8244 60.6154 60.7837 59.4961 59.5 59.4961C58.2163 59.4961 57.1756 60.6154 57.1756 61.9962V64.4664C56.7819 64.5476 56.3828 64.6504 55.9784 64.7812C52.7071 65.8385 50.2618 68.8477 49.5968 72.6344C48.9899 76.0921 50.0199 79.427 52.2847 81.3377C53.5138 82.3745 55.0495 83.3213 57.1756 84.3268V98.8267C55.3452 98.7022 54.1207 98.2542 52.0795 96.8178C51.0054 96.0615 49.5645 96.3858 48.8619 97.5414C48.159 98.697 48.4602 100.246 49.5345 101.002C52.5111 103.097 54.5266 103.69 57.1756 103.83V106.416C57.1756 107.797 58.2163 108.916 59.5 108.916C60.7837 108.916 61.8244 107.797 61.8244 106.416V103.57C66.8017 102.398 69.7128 97.9304 70.3659 93.7512C71.2196 88.2873 68.5631 83.5373 63.5978 81.6497ZM55.1537 77.4029C54.2602 76.6491 53.8813 75.1773 54.1649 73.5619C54.4257 72.0764 55.355 70.285 57.1756 69.6222V78.7785C56.4114 78.3402 55.7218 77.8822 55.1537 77.4029ZM65.7813 92.9219C65.4466 95.0632 64.1029 97.3344 61.8241 98.3379V86.2775C61.8999 86.3065 61.9717 86.3347 62.0484 86.364C66.2158 87.9483 65.9594 91.784 65.7813 92.9219V92.9219Z"/>
</mask>
<path d="M63.5978 81.6497C63.0147 81.4279 62.4194 81.1972 61.8244 80.9574V69.6262C63.4003 70.125 64.4527 70.9338 64.4974 70.9688C65.5199 71.7926 66.9705 71.5741 67.7431 70.4773C68.5183 69.3767 68.3172 67.8086 67.294 66.9745C67.1576 66.8633 64.9964 65.1377 61.8244 64.4844V61.9962C61.8244 60.6154 60.7837 59.4961 59.5 59.4961C58.2163 59.4961 57.1756 60.6154 57.1756 61.9962V64.4664C56.7819 64.5476 56.3828 64.6504 55.9784 64.7812C52.7071 65.8385 50.2618 68.8477 49.5968 72.6344C48.9899 76.0921 50.0199 79.427 52.2847 81.3377C53.5138 82.3745 55.0495 83.3213 57.1756 84.3268V98.8267C55.3452 98.7022 54.1207 98.2542 52.0795 96.8178C51.0054 96.0615 49.5645 96.3858 48.8619 97.5414C48.159 98.697 48.4602 100.246 49.5345 101.002C52.5111 103.097 54.5266 103.69 57.1756 103.83V106.416C57.1756 107.797 58.2163 108.916 59.5 108.916C60.7837 108.916 61.8244 107.797 61.8244 106.416V103.57C66.8017 102.398 69.7128 97.9304 70.3659 93.7512C71.2196 88.2873 68.5631 83.5373 63.5978 81.6497ZM55.1537 77.4029C54.2602 76.6491 53.8813 75.1773 54.1649 73.5619C54.4257 72.0764 55.355 70.285 57.1756 69.6222V78.7785C56.4114 78.3402 55.7218 77.8822 55.1537 77.4029ZM65.7813 92.9219C65.4466 95.0632 64.1029 97.3344 61.8241 98.3379V86.2775C61.8999 86.3065 61.9717 86.3347 62.0484 86.364C66.2158 87.9483 65.9594 91.784 65.7813 92.9219V92.9219Z" fill="#CDCCCE"/>
<path d="M63.5978 81.6497C63.0147 81.4279 62.4194 81.1972 61.8244 80.9574V69.6262C63.4003 70.125 64.4527 70.9338 64.4974 70.9688C65.5199 71.7926 66.9705 71.5741 67.7431 70.4773C68.5183 69.3767 68.3172 67.8086 67.294 66.9745C67.1576 66.8633 64.9964 65.1377 61.8244 64.4844V61.9962C61.8244 60.6154 60.7837 59.4961 59.5 59.4961C58.2163 59.4961 57.1756 60.6154 57.1756 61.9962V64.4664C56.7819 64.5476 56.3828 64.6504 55.9784 64.7812C52.7071 65.8385 50.2618 68.8477 49.5968 72.6344C48.9899 76.0921 50.0199 79.427 52.2847 81.3377C53.5138 82.3745 55.0495 83.3213 57.1756 84.3268V98.8267C55.3452 98.7022 54.1207 98.2542 52.0795 96.8178C51.0054 96.0615 49.5645 96.3858 48.8619 97.5414C48.159 98.697 48.4602 100.246 49.5345 101.002C52.5111 103.097 54.5266 103.69 57.1756 103.83V106.416C57.1756 107.797 58.2163 108.916 59.5 108.916C60.7837 108.916 61.8244 107.797 61.8244 106.416V103.57C66.8017 102.398 69.7128 97.9304 70.3659 93.7512C71.2196 88.2873 68.5631 83.5373 63.5978 81.6497ZM55.1537 77.4029C54.2602 76.6491 53.8813 75.1773 54.1649 73.5619C54.4257 72.0764 55.355 70.285 57.1756 69.6222V78.7785C56.4114 78.3402 55.7218 77.8822 55.1537 77.4029ZM65.7813 92.9219C65.4466 95.0632 64.1029 97.3344 61.8241 98.3379V86.2775C61.8999 86.3065 61.9717 86.3347 62.0484 86.364C66.2158 87.9483 65.9594 91.784 65.7813 92.9219V92.9219Z" stroke="#CDCCCE" stroke-width="0.2" mask="url(#path-3-outside-2)"/>
<mask id="path-4-outside-3" maskUnits="userSpaceOnUse" x="56.1757" y="35.9941" width="7" height="7" fill="black">
<rect fill="white" x="56.1757" y="35.9941" width="7" height="7"/>
<path d="M59.5 41.9944C60.1113 41.9944 60.711 41.7269 61.1433 41.2619C61.5757 40.7969 61.8244 40.1518 61.8244 39.4943C61.8244 38.8368 61.5757 38.1917 61.1433 37.7267C60.711 37.2617 60.1113 36.9941 59.5 36.9941C58.8887 36.9941 58.289 37.2617 57.8567 37.7267C57.4244 38.1917 57.1757 38.8368 57.1757 39.4943C57.1757 40.1518 57.4244 40.7969 57.8567 41.2619C58.289 41.7269 58.8885 41.9944 59.5 41.9944Z"/>
</mask>
<path d="M59.5 41.9944C60.1113 41.9944 60.711 41.7269 61.1433 41.2619C61.5757 40.7969 61.8244 40.1518 61.8244 39.4943C61.8244 38.8368 61.5757 38.1917 61.1433 37.7267C60.711 37.2617 60.1113 36.9941 59.5 36.9941C58.8887 36.9941 58.289 37.2617 57.8567 37.7267C57.4244 38.1917 57.1757 38.8368 57.1757 39.4943C57.1757 40.1518 57.4244 40.7969 57.8567 41.2619C58.289 41.7269 58.8885 41.9944 59.5 41.9944Z" fill="#CDCCCE"/>
<path d="M59.5 41.9944C60.1113 41.9944 60.711 41.7269 61.1433 41.2619C61.5757 40.7969 61.8244 40.1518 61.8244 39.4943C61.8244 38.8368 61.5757 38.1917 61.1433 37.7267C60.711 37.2617 60.1113 36.9941 59.5 36.9941C58.8887 36.9941 58.289 37.2617 57.8567 37.7267C57.4244 38.1917 57.1757 38.8368 57.1757 39.4943C57.1757 40.1518 57.4244 40.7969 57.8567 41.2619C58.289 41.7269 58.8885 41.9944 59.5 41.9944Z" stroke="#CDCCCE" stroke-width="0.8" mask="url(#path-4-outside-3)"/>
</g>
</g>
<defs>
<clipPath id="clip0">
<rect width="375" height="812" fill="white" transform="translate(-222 -612)"/>
</clipPath>
<clipPath id="clip1">
<rect width="119" height="128" fill="white"/>
</clipPath>
</defs>
</svg>
